<?xml version="1.0" encoding="UTF-8"?>
<svg id="Layer_1" data-name="Layer 1" xmlns="http://www.w3.org/2000/svg" viewBox="0 0 576 576">
  <defs>
    <style>
      .cls-1 {
        fill: none;
      }

      .cls-2 {
        fill: #e5cd1e;
      }
    </style>
  </defs>
  <rect class="cls-1" width="576" height="576"/>
  <g>
    <circle class="cls-2" cx="288.56" cy="288.03" r="154.03"/>
    <path class="cls-2" d="m256.28,77.63c-4.56-15.55-9.13-31.11-13.69-46.66-4.16-14.18-20.62-24.11-35.08-19.16-14.5,4.97-23.62,19.87-19.16,35.08,4.56,15.55,9.13,31.11,13.69,46.66,4.16,14.18,20.62,24.11,35.08,19.16,14.5-4.97,23.62-19.87,19.16-35.08h0Z"/>
    <path class="cls-2" d="m116.95,162.08c-14.23-7.77-28.45-15.54-42.68-23.31-12.99-7.1-31.61-2.45-38.35,11.25-6.76,13.74-2.61,30.78,11.25,38.35,14.23,7.77,28.45,15.54,42.68,23.31,12.99,7.1,31.61,2.45,38.35-11.25,6.76-13.74,2.61-30.78-11.25-38.35h0Z"/>
    <path class="cls-2" d="m78.16,320.32c-15.55,4.56-31.11,9.13-46.66,13.69-14.18,4.16-24.11,20.62-19.16,35.08,4.97,14.5,19.87,23.62,35.08,19.16,15.55-4.56,31.11-9.13,46.66-13.69,14.18-4.16,24.11-20.62,19.16-35.08-4.97-14.5-19.87-23.62-35.08-19.16h0Z"/>
    <path class="cls-2" d="m162.61,459.64c-7.77,14.23-15.54,28.45-23.31,42.68-7.1,12.99-2.45,31.61,11.25,38.35,13.74,6.76,30.78,2.61,38.35-11.25,7.77-14.23,15.54-28.45,23.31-42.68,7.1-12.99,2.45-31.61-11.25-38.35-13.74-6.76-30.78-2.61-38.35,11.25h0Z"/>
    <path class="cls-2" d="m320.85,498.44c4.56,15.55,9.13,31.11,13.69,46.66,4.16,14.18,20.62,24.11,35.08,19.16,14.5-4.97,23.62-19.87,19.16-35.08-4.56-15.55-9.13-31.11-13.69-46.66-4.16-14.18-20.62-24.11-35.08-19.16-14.5,4.97-23.62,19.87-19.16,35.08h0Z"/>
    <path class="cls-2" d="m460.17,413.98c14.23,7.77,28.45,15.54,42.68,23.31,12.99,7.1,31.61,2.45,38.35-11.25,6.76-13.74,2.61-30.78-11.25-38.35-14.23-7.77-28.45-15.54-42.68-23.31-12.99-7.1-31.61-2.45-38.35,11.25-6.76,13.74-2.61,30.78,11.25,38.35h0Z"/>
    <path class="cls-2" d="m498.97,255.75c15.55-4.56,31.11-9.13,46.66-13.69,14.18-4.16,24.11-20.62,19.16-35.08-4.97-14.5-19.87-23.62-35.08-19.16-15.55,4.56-31.11,9.13-46.66,13.69-14.18,4.16-24.11,20.62-19.16,35.08,4.97,14.5,19.87,23.62,35.08,19.16h0Z"/>
    <path class="cls-2" d="m414.51,116.42c7.77-14.23,15.54-28.45,23.31-42.68,7.1-12.99,2.45-31.61-11.25-38.35-13.74-6.76-30.78-2.61-38.35,11.25-7.77,14.23-15.54,28.45-23.31,42.68-7.1,12.99-2.45,31.61,11.25,38.35,13.74,6.76,30.78,2.61,38.35-11.25h0Z"/>
  </g>
</svg>