<?xml version="1.0" encoding="UTF-8"?>
<svg id="Layer_1" data-name="Layer 1" xmlns="http://www.w3.org/2000/svg" viewBox="0 0 576 576">
  <defs>
    <style>
      .cls-1 {
        fill: none;
      }

      .cls-2 {
        fill: #f5bf17;
      }
    </style>
  </defs>
  <rect class="cls-1" width="576" height="576"/>
  <path class="cls-2" d="m503.75,247.27c-9.27-17.26-17.29-36.4-28.9-53.04-39.28-56.35-93.41-87.24-162.66-90.19-43.96-1.87-83.81,10.26-119.36,35.96-76.4,55.23-100.91,161.38-42.84,242.89,42.27,59.32,124.44,79.66,186.96,46.91,50.9-26.66,78.26-80.46,67.28-135.39-10.46-52.31-56.38-89.85-110.47-83.87-41.26,4.56-73.09,41.3-69.52,81.52,2.45,27.7,24.54,49.07,50.23,48.62,15.49-.27,28.59-10.34,30.52-23.44,1.68-11.41-5.38-18.2-16.66-16.02-9.31,1.8-15.56-3.68-15.56-13.64,0-13.68,13.44-25.47,29.78-26.11,27.34-1.08,50.71,23.05,51.75,53.43,1.29,37.76-28.62,71.02-69.01,76.73-53.34,7.55-104.69-32.67-112.59-88.17-10.12-71.14,41.44-136.11,113.65-145.46,85.62-11.08,164.48,54.05,172.67,143.26,8.25,89.89-52.16,172.59-141.66,192.12-75.37,16.45-140.4-4.81-194.05-59.45-27.25-27.75-40.93-62.68-47.73-100.85-8.67-48.6-1.26-94.68,21.35-137.8,31.78-60.6,82.04-98.24,149.09-112.58,14.56-3.11,29.71-6.01,44.42-5.37,30.13,1.32,59.89,5.58,88.02,18.35,27.43,12.45,51.76,28.88,72.23,50.79,26.41,28.27,44.14,61.4,53.19,99.09.21.86-.15,1.86-.13,1.74Z"/>
</svg>