<?xml version="1.0" encoding="UTF-8"?>
<svg id="Layer_1" data-name="Layer 1" xmlns="http://www.w3.org/2000/svg" viewBox="0 0 576 576">
  <defs>
    <style>
      .cls-1 {
        fill: none;
      }

      .cls-2 {
        fill: #fff;
      }
    </style>
  </defs>
  <rect class="cls-1" width="576" height="576"/>
  <g>
    <path class="cls-2" d="m91.06,288.95c32.89,0,85.94,6.1,125.53,47.03,41.84,43.26,69.36,122.42,69.36,159.21,0-38.16,36.17-119.98,80.18-164.03,38.55-38.58,83.12-42.2,114.71-42.2-32.72,0-79.37-5.77-118.83-46.39-42.13-43.37-76.06-122.88-76.06-159.85,0,36.75-33.53,115.85-75.33,159.09-39.61,40.99-86.65,47.15-119.56,47.15Z"/>
    <path class="cls-2" d="m171.11,228.19c0-62.65,10.4-73.66,69.6-73.66-59.2,0-69.6-11.01-69.6-73.66,0,62.65-10.4,73.66-69.6,73.66,59.2,0,69.6,11.01,69.6,73.66Z"/>
    <path class="cls-2" d="m416.46,487.82c0-62.65,10.4-73.66,69.6-73.66-59.2,0-69.6-11.01-69.6-73.66,0,62.65-10.4,73.66-69.6,73.66,59.2,0,69.6,11.01,69.6,73.66Z"/>
  </g>
</svg>